#tb 0: 1/44100
#media_type 0: audio
#codec_id 0: pcm_s16le
#sample_rate 0: 44100
#channel_layout_name 0: stereo
0,          0,          0,     1912,     7648, 0x1294dd84
0,       1912,       1912,     4096,    16384, 0x8d5eec9b
0,       6008,       6008,     4096,    16384, 0x9f15e8a9
0,      10104,      10104,     4096,    16384, 0x5594dd9d
0,      14200,      14200,     4096,    16384, 0x5115d9bb
0,      18296,      18296,     4096,    16384, 0x0511d717
0,      22392,      22392,     4096,    16384, 0x9cbdd713
0,      26488,      26488,     4096,    16384, 0x2f13e615
0,      30584,      30584,     4096,    16384, 0x415ae9f7
0,      34680,      34680,     4096,    16384, 0x8d5eec9b
0,      38776,      38776,     4096,    16384, 0x9f15e8a9
0,      42872,      42872,     4096,    16384, 0xd9809dcd
0,      46968,      46968,     4096,    16384, 0x7b60ec15
0,      51064,      51064,     4096,    16384, 0xe92de3eb
0,      55160,      55160,     4096,    16384, 0x063d2c76
0,      59256,      59256,     4096,    16384, 0xacbed331
0,      63352,      63352,     4096,    16384, 0x1137d0c7
0,      67448,      67448,     4096,    16384, 0xafbad1d7
0,      71544,      71544,     4096,    16384, 0xb2a0040c
0,      75640,      75640,     4096,    16384, 0x83222d0c
0,      79736,      79736,     4096,    16384, 0x97993592
0,      83832,      83832,     4096,    16384, 0x9e4200b2
0,      87928,      87928,     4096,    16384, 0xf24c2685
0,      92024,      92024,     4096,    16384, 0x0b23a4c8
0,      96120,      96120,     4096,    16384, 0x9105fcde
0,     100216,     100216,     4096,    16384, 0xd4b64a6f
0,     104312,     104312,     4096,    16384, 0xef56c48a
0,     108408,     108408,     4096,    16384, 0xb12b9599
0,     112504,     112504,     4096,    16384, 0x18bbeefd
0,     116600,     116600,     4096,    16384, 0x3fe2d14b
0,     120696,     120696,     4096,    16384, 0xf6d6fdff
0,     124792,     124792,     4096,    16384, 0x2e538447
0,     128888,     128888,     4096,    16384, 0xd8251663
0,     132984,     132984,     4096,    16384, 0xd783c943
0,     137080,     137080,     4096,    16384, 0x3d64f7cf
0,     141176,     141176,     4096,    16384, 0x80e2c034
0,     145272,     145272,     4096,    16384, 0x69a7e254
0,     149368,     149368,     4096,    16384, 0xb3f5efb9
0,     153464,     153464,     4096,    16384, 0x3975dea3
0,     157560,     157560,     4096,    16384, 0x7ff7d2c5
0,     161656,     161656,     4096,    16384, 0x5476e599
0,     165752,     165752,     4096,    16384, 0x30e4f37a
0,     169848,     169848,     4096,    16384, 0x57c1a83c
0,     173944,     173944,     2456,     9824, 0x498532b3
0,     176400,     176400,    88200,   352800, 0x4fb492af
0,     264600,     264600,     1912,     7648, 0xf0c93a5a
0,     266512,     266512,     4096,    16384, 0x85454449
0,     270608,     270608,     4096,    16384, 0x5b0c3b8c
0,     274704,     274704,     4096,    16384, 0x6f6cdea0
0,     278800,     278800,     4096,    16384, 0xc14aa167
0,     282896,     282896,     4096,    16384, 0x8d2d9fd7
0,     286992,     286992,     4096,    16384, 0x84f626cb
0,     291088,     291088,     4096,    16384, 0x7f229b40
0,     295184,     295184,     4096,    16384, 0xd722823b
0,     299280,     299280,     4096,    16384, 0x7de54034
0,     303376,     303376,     4096,    16384, 0xf4855785
0,     307472,     307472,     4096,    16384, 0x9ed9bc5c
0,     311568,     311568,     4096,    16384, 0xb884e33e
0,     315664,     315664,     4096,    16384, 0x0cec51e5
0,     319760,     319760,     4096,    16384, 0x1ecd7171
0,     323856,     323856,     4096,    16384, 0x1e294050
0,     327952,     327952,     4096,    16384, 0x6920a1ca
0,     332048,     332048,     4096,    16384, 0x6b306f4e
0,     336144,     336144,     4096,    16384, 0x2b706c2c
0,     340240,     340240,     4096,    16384, 0x79ab2a89
0,     344336,     344336,     4096,    16384, 0xc59316f4
0,     348432,     348432,     4096,    16384, 0xc616d0b7
0,     352528,     352528,     4096,    16384, 0xe11b367d
0,     356624,     356624,     4096,    16384, 0x06412c5c
0,     360720,     360720,     4096,    16384, 0x6372274f
0,     364816,     364816,     4096,    16384, 0xf8023712
0,     368912,     368912,     4096,    16384, 0x379c767f
0,     373008,     373008,     4096,    16384, 0x96e753db
0,     377104,     377104,     4096,    16384, 0xe1cd1eac
0,     381200,     381200,     4096,    16384, 0x9319ee7c
0,     385296,     385296,     4096,    16384, 0x57ce15de
0,     389392,     389392,     4096,    16384, 0x655a0bbc
0,     393488,     393488,     4096,    16384, 0xa71a222a
0,     397584,     397584,     4096,    16384, 0x17ebc62b
0,     401680,     401680,     4096,    16384, 0x88471cc3
0,     405776,     405776,     4096,    16384, 0xc1c8cf05
0,     409872,     409872,     4096,    16384, 0x944344e5
0,     413968,     413968,     4096,    16384, 0xb49fbe91
0,     418064,     418064,     4096,    16384, 0xc5eff49b
0,     422160,     422160,     4096,    16384, 0xbaf0568f
0,     426256,     426256,     4096,    16384, 0xfc2475f0
0,     430352,     430352,     4096,    16384, 0x06c9d509
0,     434448,     434448,     4096,    16384, 0x7d9b5cf7
0,     438544,     438544,     4096,    16384, 0x3aca1937
0,     442640,     442640,     4096,    16384, 0x4ac42b52
0,     446736,     446736,     4096,    16384, 0x18f40407
0,     450832,     450832,     4096,    16384, 0x91303ad2
0,     454928,     454928,     4096,    16384, 0x59e9f0ff
0,     459024,     459024,     4096,    16384, 0xa375f6d6
0,     463120,     463120,     4096,    16384, 0x829ccc2c
0,     467216,     467216,     4096,    16384, 0x74abb95e
0,     471312,     471312,     4096,    16384, 0x1f2f6dcb
0,     475408,     475408,     4096,    16384, 0xcafcc3db
0,     479504,     479504,     4096,    16384, 0x1a6cd795
0,     483600,     483600,     4096,    16384, 0xd8c2538c
0,     487696,     487696,     4096,    16384, 0x3695b64a
0,     491792,     491792,     4096,    16384, 0xad648c75
0,     495888,     495888,     4096,    16384, 0xe24fa60b
0,     499984,     499984,     4096,    16384, 0x96b1bf9e
0,     504080,     504080,     4096,    16384, 0xf1e34827
0,     508176,     508176,     4096,    16384, 0xc267c4d7
0,     512272,     512272,     4096,    16384, 0x5d5a2115
0,     516368,     516368,     4096,    16384, 0xfd6024aa
0,     520464,     520464,     4096,    16384, 0x9cd58cc0
0,     524560,     524560,     4096,    16384, 0xb458f309
0,     528656,     528656,     4096,    16384, 0xaee359c9
0,     532752,     532752,     4096,    16384, 0x9aa3c89b
0,     536848,     536848,     4096,    16384, 0x2a4f1f66
0,     540944,     540944,     4096,    16384, 0x0c817abf
0,     545040,     545040,     4096,    16384, 0x1e97f79e
0,     549136,     549136,     4096,    16384, 0x12a32ed0
0,     553232,     553232,     4096,    16384, 0x722bfc87
0,     557328,     557328,     4096,    16384, 0x65e0fab9
0,     561424,     561424,     4096,    16384, 0x55cca852
0,     565520,     565520,     4096,    16384, 0x19a10ac6
0,     569616,     569616,     4096,    16384, 0x078180b2
0,     573712,     573712,     4096,    16384, 0xf6f8fc53
0,     577808,     577808,     4096,    16384, 0xc72ffe63
0,     581904,     581904,     4096,    16384, 0xf9f837fd
0,     586000,     586000,     4096,    16384, 0x78d70334
0,     590096,     590096,     4096,    16384, 0x061d910c
0,     594192,     594192,     1158,     4632, 0xdc098a7f
